<svg width="64" height="64" viewBox="0 0 64 64" fill="none" xmlns="http://www.w3.org/2000/svg">
<path d="M10.6667 42.6667H53.3333V13.3333H10.6667V42.6667ZM34.6667 48V53.3333H45.3333V58.6667H18.6667V53.3333H29.3333V48H7.97867C7.62848 47.9972 7.28226 47.9255 6.95979 47.7889C6.63732 47.6523 6.34492 47.4535 6.09928 47.2039C5.85363 46.9543 5.65956 46.6587 5.52814 46.3341C5.39672 46.0095 5.33053 45.6622 5.33334 45.312V10.688C5.33334 9.20267 6.54667 8 7.97867 8H56.0213C57.4827 8 58.6667 9.19733 58.6667 10.6853V45.312C58.6667 46.7973 57.4533 48 56.0213 48H34.6667Z" fill="white"/>
</svg>
